<svg version="1.1" id="Layer_1" xmlns="http://www.w3.org/2000/svg" x="0" y="0" viewBox="0 0 32 32" xml:space="preserve"><style>@media (prefers-color-scheme:dark){.favicon__path{fill:#fff}}</style><g><path class="favicon__path" fill="#015" d="M9.13 20.1c-.36.57-1.01 1.45-1.01 2.76 0 1.64 1.31 3.87 4.58 5.33-.54-1.14-.95-2.58-1.27-4.13-.27-1.25-1.09-2.73-2.3-3.96zM18.2 8.71c1.72 1.16 3.82 2.58 5.52 4.01.06-.47.11-1.03.11-1.67 0-4.28-2.65-6.79-5.28-7.69-.68-.23-1.45-.38-2.12-.38-.18 0-.36.01-.55.03v4.1c.62.45 1.42.99 2.32 1.6zm-3.45-2.5c-1.45-1.19-3.17-3.11-3.17-4.19 0-.1.02-.2.03-.28.09-.41.31-.73.6-.98.26-.23.58-.39.91-.51.41-.15.83-.22 1.16-.24.2-.01.36 0 .46.03l.01 6.17zm13.18 15.64c-.03.57-.11 1.11-.24 1.63-.24.96-.65 1.83-1.18 2.62-.51.76-1.14 1.44-1.85 2.04-.62.53-1.3 1-2.01 1.42-.55.32-1.13.61-1.71.86-.66.29-1.33.54-2 .75-.8.25-1.59.44-2.36.59-.62.11-1.23.2-1.81.24V8.22c-.78.1-1.31.55-1.63 1.26-.29.64-.44 1.35-.87 1.93-.88 1.2-3.16.92-3.5 2.57-.51 2.43 2.65 2.94 3.58 4.63.61 1.11.41 2.77 1.29 3.74v5.19c-.07-.14-.14-.28-.2-.43-.09-.2-.16-.41-.23-.62-.05-.14-.09-.28-.13-.42-.39-1.33-.57-2.7-1.15-3.98-.65-1.35-1.57-2.43-2.59-3.41-.7-.68-1.45-1.31-2.19-1.94-.11-.09-.22-.19-.32-.28-.63-.55-1.24-1.12-1.72-1.77-.43-.59-.77-1.24-.92-2.01-.04-.2-.07-.4-.08-.61-.02-.19-.02-.39 0-.59.09-1.2.7-2.27 1.47-3.2.42-.5.88-.96 1.34-1.38.48-.44.99-.87 1.5-1.27.78-.62 2.48-1.86 2.6-1.95.74 1.29 2.14 2.7 3.76 3.97 1.88 1.47 6.02 3.92 8.74 6.35.47.42.91.84 1.31 1.26.75.78 1.41 1.58 1.92 2.39.47.75.82 1.52 1.03 2.33.11.61.18 1.23.15 1.87z"/></g></svg>