<svg xmlns="http://www.w3.org/2000/svg" xmlns:xlink="http://www.w3.org/1999/xlink"><symbol id="chevron-down" viewBox="0 0 30 30"><path fill="none" d="M0 0h30v30H0z"/><path d="M24.29 10.29a.996.996 0 1 1 1.41 1.41l-10 10a.996.996 0 0 1-1.41 0l-10-10a.996.996 0 1 1 1.41-1.41l9.3 9.3 9.29-9.3z"/></symbol><symbol id="chevron-left" viewBox="0 0 30 30"><path fill="none" d="M0 0h30v30H0z"/><path d="M19.71 24.29a.996.996 0 1 1-1.41 1.41l-10-10a.996.996 0 0 1 0-1.41l10-10a.996.996 0 1 1 1.41 1.41l-9.3 9.3 9.3 9.29z"/></symbol><symbol id="chevron-right" viewBox="0 0 30 30"><path fill="none" d="M0 0h30v30H0z"/><path d="M10.29 5.71A.996.996 0 1 1 11.7 4.3l10 10c.39.39.39 1.02 0 1.41l-10 10a.996.996 0 1 1-1.41-1.41l9.3-9.3-9.3-9.29z"/></symbol><symbol id="chevron-up" viewBox="0 0 30 30"><path fill="none" d="M0 0h30v30H0z"/><path d="M5.71 19.71A.996.996 0 1 1 4.3 18.3l10-10a.996.996 0 0 1 1.41 0l10 10a.996.996 0 1 1-1.41 1.41l-9.3-9.3-9.29 9.3z"/></symbol><symbol id="edit" viewBox="0 0 64 64"><path d="M4 45v15h15l5.34-5.34-15-15L4 45zm8.16-8.157L36.345 12.66l14.998 14.997L27.159 51.84zM51.24 6.24a6 6 0 0 0-8.48 0l-3.6 3.6 15 15 3.6-3.6a6 6 0 0 0 0-8.48Z"/></symbol><symbol id="locked" viewBox="0 0 65 65"><path d="M52.5 27h-2.6v-9.1C49.9 8.3 42.1.5 32.5.5c-9.6 0-17.4 7.8-17.4 17.4V27h-2.6c-2 0-3.7 1.7-3.7 3.7v30c0 2 1.7 3.7 3.7 3.7h40c2 0 3.7-1.7 3.7-3.7v-30c0-2-1.7-3.7-3.7-3.7zM36.4 53.4h-7.9l1.4-6.7c-1.3-.8-2.2-2.3-2.2-4 0-2.6 2.1-4.7 4.7-4.7s4.7 2.1 4.7 4.7c0 1.7-.9 3.1-2.2 4l1.5 6.7zM32.5 27H21.3v-9.1c0-6.2 5-11.2 11.2-11.2 6.2 0 11.2 5 11.2 11.2V27H32.5z"/></symbol><symbol id="meme" viewBox="0 0 100 100"><path d="M23.815 94.244c.136-.05.246-.123.246-.165 0-.042-.533-.243-1.185-.447-2.52-.788-3.18-1.289-5.478-4.156-1.367-1.705-2.91-3.312-3.113-3.244-.132.045-.107.281.162 1.5a40.099 40.099 0 0 0 1.342 4.604c.72 2.033.727 1.834-.07 1.834-.648 0-.674 0-.768-.246-.164-.416-.686-2.27-1.403-4.987-1.688-6.397-2.892-9.286-5.067-12.154-.335-.443-.61-.85-.61-.906 0-.204-.37-3.083-.546-4.249-.1-.664-.431-2.415-.735-3.891l-.553-2.684-.024-12.908-.024-12.909.27-.27c.393-.393.613-.323.917.292.447.904.554 1.956.547 5.356-.005 2.51-.052 3.586-.29 6.62-.32 4.063-.442 6.708-.31 6.708.13 0 .619-.543.783-.868.183-.363.185-1.332.009-4.097-.313-4.923-.18-5.83 1.366-9.302.923-2.074 1.217-2.987 1.143-3.556-.063-.49-.358-1.23-.49-1.23-.052 0-.1.393-.115.952-.024.926-.032.958-.275 1.139-.232.173-.268.176-.492.05-.24-.137-.242-.146-.234-1.072.011-1.237.172-1.93 1.08-4.641.895-2.671 1.155-3.746 1.289-5.328.155-1.839.21-1.936.543-.962.167.49.206.793.206 1.61 0 .554.028 1.007.062 1.007.077 0 2.653-2.719 4.246-4.48 2.43-2.688 5.058-5.79 8.4-9.917 3.145-3.884 4.9-5.474 7.317-6.628 1.07-.512 1.907-.724 3.863-.979 1.94-.252 2.585-.443 4.229-1.247.773-.378 1.628-.774 1.898-.88.98-.385 3.075-.82 6.128-1.272 2.216-.33 4.073-.656 5.137-.905 1.585-.372 2.168-.435 4.037-.436 1.82-.001 1.846 0 2.572.266.404.147 1.247.393 1.873.545 1.283.313 1.79.509 2.884 1.112 3.215 1.772 5.948 4.338 10.288 9.658a65.364 65.364 0 0 0 2.983 3.354c3.193 3.31 3.53 3.942 4.396 8.278.445 2.221.807 3.36 1.564 4.917.671 1.382 1.16 2.189 3.31 5.457 3.422 5.2 4.14 6.917 4.603 11.002.256 2.261.334 4.838.295 9.66l-.04 4.742-.28 1.833c-.429 2.79-.373 4.67.17 5.738.25.494.418.712 1.05 1.36l.51.524v4.857l-.242.357c-.132.197-.501 1.124-.82 2.06-.639 1.878-1.357 3.579-2.738 6.483-1.24 2.605-1.904 4.181-2.416 5.725l-.43 1.297-.785.026c-.432.015-.836 0-.9-.018-.083-.033-.008-.34.287-1.177.22-.623.621-1.964.893-2.98 1.164-4.354 1.588-5.436 3.143-8.02 1.064-1.768 1.345-2.338 1.553-3.152.23-.9.219-1.736-.052-3.733-.373-2.754-.425-4.019-.305-7.435.148-4.202.08-6.84-.218-8.552-.535-3.068-1.113-5.129-2.992-10.669-1.388-4.09-1.643-4.917-2.693-8.728-.85-3.084-1.326-4.454-2.065-5.942-.666-1.342-1.284-2.234-2.727-3.935-1.293-1.526-1.973-2.472-2.432-3.386-.386-.768-.744-1.908-.744-2.365 0-.198.027-.215.272-.166.358.072.986.51 1.333.93.153.184.484.738.737 1.23.626 1.22 1.097 1.95 1.467 2.276.602.528.607.309.026-1.246-.471-1.26-.984-2.133-1.717-2.92-.686-.736-1.554-1.24-2.304-1.34-.24-.032-.47-.103-.512-.158-.04-.056-.124-.363-.185-.682-.202-1.051-.621-1.804-1.953-3.51-.413-.528-.81-1.101-.881-1.274-.073-.172-.173-.727-.225-1.231-.05-.505-.139-1.073-.195-1.262-.312-1.057-3.986-3.986-8.234-6.564-2.892-1.755-4.341-2.166-7.253-2.055-1.736.066-2.993.28-6.138 1.048-2.95.72-3.535.819-6.262 1.069-3.372.309-3.774.441-5.859 1.924-1.934 1.376-2.554 1.624-4.696 1.878-1.462.173-2.117.33-2.717.653-.688.37-1.87 1.605-3.035 3.171a47.851 47.851 0 0 1-2.097 2.594c-.578.654-2.518 2.9-4.311 4.99-4.753 5.542-6.694 7.727-8.757 9.856l-.927.957.062 1.414c.1 2.326-.174 3.622-1.505 7.102-1.466 3.835-1.545 4.199-1.979 9.071-.243 2.73-.335 6.072-.232 8.413.116 2.626.12 2.64.997 4.513.288.615.586 1.36.662 1.655.077.299.176 1.29.224 2.236.115 2.266.352 3.181 1.721 6.62 1.417 3.557 1.877 5.06 2.17 7.095.081.557.206 1.179.277 1.381.237.673 2.193 3.106 3.769 4.69 2.133 2.143 3.644 3.257 6.778 4.996.689.382 1.332.75 1.429.815.15.101-.067.12-1.476.113-1.217 0-1.588-.032-1.407-.097zM11.846 78.762c-.312-.947-.991-3.375-1.508-5.396-1.287-5.033-2.312-8.323-2.625-8.426-.132-.042-.107.28.17 2.258.578 4.102 1.596 8.367 2.491 10.432.501 1.154 1.653 2.854 1.935 2.854.066 0-.108-.65-.463-1.722zm78.32-29.132c0-1.3-.379-2.975-1.065-4.715-.46-1.165-2.106-4.579-2.366-4.908-.138-.173-.142-.17-.145.103-.003.383.565 2.618.95 3.73.532 1.54 2.456 6.32 2.543 6.32.045 0 .082-.239.082-.53zM55.682 80.598c-2.78-.086-5.084-.714-6.753-1.841-2.823-1.907-4.41-4.756-4.034-7.24.145-.96.377-1.5.644-1.5.303 0 1 .49 1.304.917.394.552.5.784.965 2.125.447 1.284.695 1.783 1.142 2.292.58.661 2.127 1.52 3.422 1.9 2.55.75 6.519.683 8.9-.148 1.38-.482 2.652-1.403 3.037-2.2.284-.587.333-2.35.142-5.108-.09-1.298-.141-2.887-.123-3.787l.03-1.55.288-.257c.394-.352.803-.415 1.294-.198.322.143.444.27.682.718.691 1.296.803 2.571.67 7.596l-.077 2.88-.432.631c-1.433 2.098-3.453 3.734-5.363 4.345-1.018.325-3.354.498-5.738.425zM27.039 57.312c-1.872-.232-3.73-1-5.363-2.218-.721-.538-2.167-1.979-2.189-2.181a40.51 40.51 0 0 1 .005-1.367c.022-1.574-.125-2.174-.975-3.98-.9-1.913-1.002-2.261-1.052-3.578-.113-2.977 1.064-5.78 3.34-7.956 4.694-4.488 12.644-5.11 18-1.41.37.256.973.747 1.338 1.092.595.561.684.69.865 1.252.197.614.211.63.704.87.881.426 1.312 1.274 1.312 2.584 0 3.327-1.696 6.486-6.292 11.722-2.061 2.348-3.743 3.835-5.048 4.467-1.206.583-3.193.883-4.646.703zm2.613-1.605c.766-.245 1.58-.647 2.057-1.016 1.499-1.158 3.826-3.453 5.36-5.287 2.47-2.952 3.814-5.092 4.132-6.58.285-1.333-.064-4.383-.549-4.806-.372-.325-.606-.337-1.121-.057-.255.139-.483.304-.507.367-.055.145.11.398.694 1.064.502.572.802 1.085.802 1.372 0 .246-.107.231-.735-.104-.757-.403-1.706-1.325-2.957-2.872-1.418-1.752-1.857-2.225-2.649-2.856-1.389-1.105-2.733-1.589-4.417-1.589-1.676 0-3.035.372-4.499 1.232-1.256.738-2.735 1.974-3.805 3.18-.74.835-.779.77.577.98 1.958.306 3.186 1.413 3.482 3.143.193 1.124-.126 2.165-.936 3.05-.75.821-1.82 1.213-3.685 1.35l-.705.053.051 1.579c.056 1.742.22 2.657.679 3.804.852 2.128 2.45 3.481 4.822 4.083.977.248 3 .201 3.909-.091zm39.94-8.111c-3.112-.198-6.508-.963-8.631-1.944-2.39-1.104-4.294-3.17-6.774-7.352-1.212-2.043-1.46-3.5-.962-5.646.412-1.773 1.165-2.872 3.857-5.633 2.82-2.892 3.509-3.861 4.328-6.09.324-.88.35-.92.66-1.002 1.288-.344 3.686-.349 4.972-.011 1.005.263 2.202.866 3.042 1.53 2.541 2.008 6.94 7.257 8.931 10.657a18.28 18.28 0 0 1 1.996 4.861c.336 1.33.397 3.462.13 4.518-.595 2.356-2.337 4.417-4.745 5.615l-1.028.512-2.642.01c-1.453 0-2.864-.01-3.134-.022zm4.785-1.268c2.377-.509 3.914-1.573 4.739-3.28.499-1.033.62-1.627.622-3.04.003-2.706-.962-5.608-2.765-8.32-.66-.993-1.775-2.37-1.919-2.37-.042 0-.093.513-.111 1.14-.055 1.824-.22 1.99-1.97 1.99-2.988 0-4.518-.378-5.597-1.382l-.505-.47-.034-1.154c-.041-1.392.105-2.206.566-3.142.478-.971 1.158-1.36 2.633-1.505.748-.074.76-.106.344-.942-.424-.855-1.298-1.69-2.232-2.135-.771-.368-1.629-.63-2.06-.63-.173 0-.415.15-.809.503-.585.523-1.684 1.412-3.962 3.21-3.98 3.141-5.78 5.273-6.572 7.782-.25.796-.343 2.32-.18 3.006.39 1.658 2.44 5.025 4.024 6.61 1.203 1.204 2.612 2.075 4.562 2.818 1.668.636 4.095 1.199 5.949 1.38a53.75 53.75 0 0 1 1.252.133c.675.094 3.251-.036 4.025-.202z"/></symbol></svg>