<svg height='100px' width='100px' xmlns="http://www.w3.org/2000/svg"
     xmlns:xlink="http://www.w3.org/1999/xlink" version="1.1" x="0px" y="0px" viewBox="0 0 65 65"
     enable-background="new 0 0 65 65" xml:space="preserve"><path d="M52.5,27h-2.6h0v-9.1c0-9.6-7.8-17.4-17.4-17.4c-9.6,0-17.4,7.8-17.4,17.4V27h-2.6c-2,0-3.7,1.7-3.7,3.7v2.2v25.6v2.2  c0,2,1.7,3.7,3.7,3.7h20h20c2,0,3.7-1.7,3.7-3.7v-2.2V32.9v-2.2C56.2,28.7,54.5,27,52.5,27z M36.4,53.4h-7.9l1.4-6.7  c-1.3-0.8-2.2-2.3-2.2-4c0-2.6,2.1-4.7,4.7-4.7c2.6,0,4.7,2.1,4.7,4.7c0,1.7-0.9,3.1-2.2,4L36.4,53.4z M32.5,27H21.3h0v-9.1  c0-6.2,5-11.2,11.2-11.2c6.2,0,11.2,5,11.2,11.2V27H32.5z"></path></svg>
